<?xml version="1.0" encoding="UTF-8" standalone="no"?>
<svg width="12px" height="12px" viewBox="0 0 12 12" version="1.1" xmlns="http://www.w3.org/2000/svg" xmlns:xlink="http://www.w3.org/1999/xlink">
    <!-- Generator: Sketch 3.8.3 (29802) - http://www.bohemiancoding.com/sketch -->
    <title>BGC</title>
    <desc>Created with Sketch.</desc>
    <defs></defs>
    <g id="Symbols" stroke="none" stroke-width="1" fill="none" fill-rule="evenodd">
        <g id="BGC---Not" transform="translate(-21.000000, -18.000000)">
            <rect id="Rectangle-175" stroke="#F2F2F2" fill="#F8F9FA" x="0" y="0" width="150" height="50"></rect>
            <path d="M25.0909091,25.9159664 L26.9090909,25.9159664 L26.9090909,30.0910767 C26.9090909,30.5930612 26.5055774,31 26,31 L26,31 C25.497923,31 25.0909091,30.6010644 25.0909091,30.0910767 L25.0909091,25.9159664 Z M23.0909091,20 C22.4884545,20 22,20.4966639 22,21.1092437 L22,24.8067227 C22,25.4193025 22.4884545,25.9159664 23.0909091,25.9159664 L28.9090909,25.9159664 C29.5115455,25.9159664 30,25.4193025 30,24.8067227 L30,21.1092437 C30,20.4966639 29.5115455,20 28.9090909,20 L23.0909091,20 Z" id="Shape" stroke="#BFBFBF" stroke-width="0.901515152" transform="translate(26.000000, 25.500000) rotate(-315.000000) translate(-26.000000, -25.500000) "></path>
        </g>
    </g>
</svg>